#!OML:ASF I:\salsa\salsa 7_09\Patient 1\Session 1\dancermale.ASF
:FULLY-SPECIFIED
:DEGREES
2032
root 12.0605 17.4438 0.92018 -353.578 254.983 -357.146
lowerback -5.69374 -3.5137 3.05034
upperback -1.11187 -5.10576 4.64356
thorax 2.20181 -2.59606 2.69528
lowerneck -5.66008 8.05261 5.48557
upperneck 19.2949 11.8467 -10.2323
head 7.81396 4.99883 -3.23498
rclavicle -2.77305e-014 3.49861e-014
rhumerus -49.12 25.5029 -103.307
rradius 93.4418
rwrist 35.7301
rhand -9.49066 8.23629
rfingers 7.12502
rthumb 16.4741 -21.0843
lclavicle -2.77305e-014 3.49861e-014
lhumerus 89.9502 19.174 95.6586
lradius 11.3459
lwrist -17.1775
lhand -14.6982 63.3135
lfingers 7.12502
lthumb 11.4558 987.019
rfemur -21.9684 3.99502 16.3121
rtibia 23.2957
rfoot -12.4303 -7.10554
rtoes 1.38254
lfemur -6.79265 9.88757 -26.4258
ltibia 9.72466
lfoot 343.143 8.51648
ltoes 2.63179
2033
root 12.0642 17.4374 0.922503 -353.544 254.648 -357.051
lowerback -5.97928 -3.53093 3.03541
upperback -1.20764 -5.14202 4.63759
thorax 2.26398 -2.61475 2.67893
lowerneck -5.35524 8.23986 5.65515
upperneck 19.1437 12.0861 -10.2733
head 7.74355 5.13681 -3.26207
rclavicle -1.00386e-014 2.70347e-014
rhumerus -49.3608 24.9776 -103.375
rradius 93.5206
rwrist 35.9909
rhand -9.41803 8.25648
rfingers 7.12502
rthumb 16.544 -21.0583
lclavicle -1.00386e-014 2.70347e-014
lhumerus 90.6587 18.0698 98.508
lradius 10.6859
lwrist -19.5661
lhand -15.1308 63.1922
lfingers 7.12502
lthumb 11.0386 987.118
rfemur -22.2428 4.16067 16.3406
rtibia 23.4128
rfoot -12.4366 -6.93107
rtoes 1.33479
lfemur -6.97833 10.0501 -26.4371
ltibia 9.76391
lfoot 343.122 8.56915
ltoes 3.12905
2034
root 12.0621 17.4398 0.931915 -353.923 254.523 -356.814
lowerback -6.0957 -3.60239 3.17781
upperback -1.16643 -5.25442 4.60863
thorax 2.35925 -2.66825 2.55184
lowerneck -5.11865 8.39482 5.81131
upperneck 18.9366 12.2876 -10.3529
head 7.66599 5.25376 -3.30102
rclavicle 1.98785e-016 2.06736e-014
rhumerus -49.444 24.7301 -103.392
rradius 93.7344
rwrist 35.9819
rhand -9.07996 8.02543
rfingers 7.12502
rthumb 16.8695 -21.2619
lclavicle 1.98785e-016 2.06736e-014
lhumerus 90.9387 16.9858 100.491
lradius 10.2486
lwrist -20.9981
lhand -15.4499 63.1745
lfingers 7.12502
lthumb 10.7308 987.12
rfemur -22.0821 4.19238 16.3776
rtibia 23.3702
rfoot -12.42 -6.83286
rtoes 1.13561
lfemur -6.8044 9.84601 -26.3791
ltibia 9.71236
lfoot 343.138 8.81687
ltoes 3.39849
2035
root 12.0635 17.4441 0.94352 -353.957 254.454 -357.059
lowerback -6.07309 -3.69021 3.14816
upperback -1.05442 -5.36992 4.57222
thorax 2.46441 -2.7231 2.5184
lowerneck -4.96634 8.49268 5.98637
upperneck 18.6499 12.4312 -10.5847
head 7.58417 5.33285 -3.3955
rclavicle -1.41137e-014 2.8625e-014
rhumerus -49.3563 24.585 -103.307
rradius 93.8444
rwrist 35.9781
rhand -8.97796 7.87133
rfingers 7.12502
rthumb 16.9677 -21.4075
lclavicle -1.41137e-014 2.8625e-014
lhumerus 90.5038 15.9263 100.194
lradius 9.94365
lwrist -20.1166
lhand -15.5733 63.8709
lfingers 7.12502
lthumb 10.6118 986.417
rfemur -21.7772 4.17438 16.2669
rtibia 23.2958
rfoot -12.3817 -6.74968
rtoes 0.984093
lfemur -6.52829 9.53988 -26.4656
ltibia 9.70151
lfoot 343.161 9.10273
ltoes 3.5784
2036
root 12.0724 17.4429 0.949812 -353.619 254.343 -357.572
lowerback -6.06496 -3.79296 2.91467
upperback -1.01591 -5.49147 4.57326
thorax 2.52441 -2.78443 2.63723
lowerneck -4.77107 8.59803 6.10339
upperneck 18.3825 12.5855 -10.7853
head 7.49701 5.41557 -3.47145
rclavicle 4.50247e-014 -1.27222e-014
rhumerus -49.3049 24.5263 -103.242
rradius 93.7742
rwrist 35.9568
rhand -8.91795 7.95267
rfingers 7.12502
rthumb 17.0254 -21.3212
lclavicle 4.50247e-014 -1.27222e-014
lhumerus 90.0487 14.8964 99.9212
lradius 9.61014
lwrist -19.1975
lhand -15.9411 64.3783
lfingers 7.12502
lthumb 10.257 985.892
rfemur -21.6546 4.1927 16.1162
rtibia 23.2904
rfoot -12.309 -6.6513
rtoes 0.976071
lfemur -6.42821 9.4526 -26.6365
ltibia 9.77374
lfoot 343.179 9.21152
ltoes 3.66203
2037
root 12.0815 17.4401 0.955499 -353.579 254.272 -357.681
lowerback -6.10189 -3.90375 2.84365
upperback -1.05111 -5.63561 4.58526
thorax 2.52065 -2.85734 2.67554
lowerneck -4.57104 8.74606 6.16388
upperneck 18.2378 12.7863 -10.843
head 7.441 5.52293 -3.48736
rclavicle -9.24349e-015 1.11319e-014
rhumerus -49.3685 24.5536 -103.295
rradius 93.6669
rwrist 36.0204
rhand -8.72767 8.10181
rfingers 7.12502
rthumb 17.2086 -21.1562
lclavicle -9.24349e-015 1.11319e-014
lhumerus 89.5811 13.7767 99.5964
lradius 9.12067
lwrist -18.3111
lhand -16.7224 64.649
lfingers 7.12502
lthumb 9.5032 985.585
rfemur -21.6585 4.19415 16.0915
rtibia 23.3423
rfoot -12.2777 -6.5686
rtoes 0.941441
lfemur -6.434 9.41803 -26.6923
ltibia 9.84743
lfoot 343.23 9.253
ltoes 4.45344
2038
root 12.0898 17.4377 0.962513 -353.714 254.231 -357.559
lowerback -6.1597 -4.00801 2.90322
upperback -1.12779 -5.7798 4.5969
thorax 2.47321 -2.93005 2.64168
lowerneck -4.43056 8.89198 6.18809
upperneck 18.2113 12.9798 -10.8163
head 7.42558 5.6238 -3.46846
rclavicle -2.97183e-014 -8.5875e-014
rhumerus -49.5024 24.5855 -103.418
rradius 93.5504
rwrist 36.2258
rhand -8.67706 8.23987
rfingers 7.12502
rthumb 17.2573 -21.0139
lclavicle -2.97183e-014 -8.5875e-014
lhumerus 88.4507 13.222 99.2992
lradius 9.81417
lwrist -17.6246
lhand -17.0417 64.3613
lfingers 7.12502
lthumb 9.19507 985.859
rfemur -21.7579 4.17169 16.1181
rtibia 23.4837
rfoot -12.3418 -6.52172
rtoes 0.786639
lfemur -6.52021 9.41972 -26.6895
ltibia 9.95138
lfoot 343.344 9.31563
ltoes 6.88951
2039
root 12.0974 17.4347 0.968496 -353.724 254.153 -357.581
lowerback -6.26422 -4.0959 2.91398
upperback -1.16144 -5.90232 4.59232
thorax 2.49859 -2.99098 2.61417
lowerneck -4.34687 9.01135 6.2572
upperneck 18.1497 13.1478 -10.8921
head 7.41671 5.70703 -3.4902
rclavicle -1.5704e-014 -9.54166e-015
rhumerus -49.5654 24.6438 -103.535
rradius 93.4625
rwrist 36.3478
rhand -8.5864 8.22413
rfingers 7.12502
rthumb 17.3445 -21.022
lclavicle -1.5704e-014 -9.54166e-015
lhumerus 87.4232 12.4659 99.0367
lradius 10.3249
lwrist -17.1301
lhand -17.0444 64.1592
lfingers 7.12502
lthumb 9.19249 986.061
rfemur -21.86 4.15264 16.101
rtibia 23.66
rfoot -12.3905 -6.48341
rtoes 0.649547
lfemur -6.56711 9.47334 -26.7207
ltibia 10.0334
lfoot 343.45 9.33803
ltoes 2.19848
